<svg
  xmlns="http://www.w3.org/2000/svg"
  xml:space="preserve"
  viewBox="0 0 512 512"
>
  <path
    d="M216.861 188.957 55.754 468h402.453L297.101 188.957z"
    fill="#364A5E"
  />
  <path
    d="M180.325 507.31c-1.292-.474-2.576-.791-3.89-1.196-14.279-4.715-21.59-16.349-18.91-31.117 10.026-55.25 20.536-110.418 29.951-165.771 3.872-22.768 5.994-45.884 7.818-68.928 1.071-13.528-3.484-18.622-16.495-22.722-28.042-8.836-56.206-17.302-84.124-26.513-7.958-2.625-15.758-6.52-22.741-11.168-20.124-13.397-9.238-42.707 4.725-49.185 5.642-2.616 11.285-2.455 17.023-.702 38.124 11.639 76.949 20.156 116.354 26.054 34.574 5.175 69.035 4.242 103.53-1.328 36.707-5.928 72.801-14.353 108.491-24.663 11.771-3.401 21.239.154 27.386 10.811 8.699 15.08 8.729 32.842-10.726 42.449-13.321 6.578-27.647 11.179-41.67 16.266-18.763 6.806-37.665 13.227-56.507 19.813-.741.259-1.499.478-2.225.777-17.459 7.21-20.007 9.473-18.253 29.998 3.178 37.188 9.752 73.906 16.818 110.543 7.359 38.148 14.345 76.37 21.291 114.596 2.667 14.674-4.588 26.021-18.821 30.502-7.311 1.918-13.27 2.835-18.02 1.485-12.409-3.962-19.12-12.972-22.245-25.142-.508-1.978-.938-3.977-1.374-5.972-7.884-36.082-15.406-72.249-23.839-108.202-2.85-12.152-7.622-23.916-12.256-35.563-2.294-5.767-5.688-5.676-8.344-.074-3.018 6.364-5.663 12.986-7.672 19.734-11.548 38.787-19.047 78.502-26.501 118.214-3.042 16.206-9.205 33.697-25.528 37.005-5.26.791-9.289 1.039-13.246-.001z"
    clip-rule="evenodd"
    fill="#43B883"
    fill-rule="evenodd"
  />
  <path
    d="m233.655 43.565 2.813-8.058 5.571 6.465 13.96-2.65-24.123-27.995-12.183 34.888 13.962-2.65zM296 46.216l-12.183-34.888-24.123 27.995 13.96 2.65 5.571-6.465 2.813 8.058L296 46.216z"
    fill="#364A5E"
  />
  <circle
    cx="257.956"
    cy="75.859"
    fill="#364A5E"
    r="52.975"
  />
  <path
    d="M313.567 154.734a382.96 382.96 0 0 1-19.947 2.689l-36.622 63.429-36.626-63.44a305.012 305.012 0 0 1-10.335-1.35c-25.331-3.791-50.42-8.672-75.239-14.761l114.943 199.088c5.258 7.61 10.592 6.277 14.821-.531l114.539-198.384c-21.654 5.231-43.482 9.699-65.534 13.26z"
    fill="#364A5E"
  />
</svg>
